<?xml version="1.0" encoding="UTF-8"?>
<svg xmlns="http://www.w3.org/2000/svg" xmlns:xlink="http://www.w3.org/1999/xlink" width="90px" height="90px" viewBox="0 0 90 90" version="1.1">
<g id="surface1">
<path style=" stroke:none;fill-rule:nonzero;fill:rgb(0%,0%,0%);fill-opacity:1;" d="M 76.175781 50.765625 L 76.179688 50.761719 L 76.171875 50.761719 Z M 76.175781 50.765625 "/>
<path style=" stroke:none;fill-rule:nonzero;fill:rgb(0%,0%,0%);fill-opacity:1;" d="M 79.605469 36.722656 C 82.117188 35.03125 83.847656 31.695312 83.847656 28.695312 C 83.847656 24.453125 80.414062 21.019531 76.175781 21.019531 C 73.144531 21.019531 70.53125 22.777344 69.285156 25.328125 C 69.78125 25.945312 70.09375 26.722656 70.09375 27.574219 L 70.09375 33.898438 C 70.800781 35.023438 71.699219 36.023438 72.746094 36.722656 C 71.820312 36.957031 70.9375 37.292969 70.09375 37.679688 L 70.09375 43.105469 C 70.09375 45.089844 68.484375 46.703125 66.496094 46.703125 L 64.015625 46.703125 L 65.449219 48.132812 L 65.449219 49.613281 C 68.121094 50.378906 72.144531 50.761719 76.164062 50.761719 L 72.277344 46.875 L 75.554688 38.953125 L 75.519531 38.953125 L 74.246094 37.496094 C 74.867188 37.71875 75.507812 37.847656 76.171875 37.847656 C 76.835938 37.847656 77.476562 37.714844 78.089844 37.496094 L 76.820312 38.953125 L 76.785156 38.953125 L 80.066406 46.875 L 76.175781 50.761719 C 83.121094 50.769531 90.070312 49.628906 90.070312 47.339844 C 90.074219 43.472656 85.617188 38.25 79.605469 36.722656 Z M 79.605469 36.722656 "/>
<path style=" stroke:none;fill-rule:nonzero;fill:rgb(0%,0%,0%);fill-opacity:1;" d="M 58.148438 40.496094 C 58.148438 42.175781 57.800781 43.898438 57.179688 45.542969 L 66.496094 45.542969 C 67.839844 45.542969 68.933594 44.449219 68.933594 43.105469 L 68.933594 27.578125 C 68.933594 26.234375 67.839844 25.140625 66.496094 25.140625 L 43.179688 25.140625 C 41.839844 25.140625 40.742188 26.234375 40.742188 27.578125 L 40.742188 29.304688 C 42.308594 28.589844 44.027344 28.183594 45.832031 28.183594 C 52.625 28.183594 58.148438 33.707031 58.148438 40.496094 Z M 58.148438 40.496094 "/>
<path style=" stroke:none;fill-rule:nonzero;fill:rgb(0%,0%,0%);fill-opacity:1;" d="M 56.222656 47.617188 C 55.84375 48.3125 55.402344 48.976562 54.929688 49.609375 L 64.289062 49.609375 L 64.289062 48.617188 L 63.296875 47.621094 L 56.222656 47.621094 Z M 56.222656 47.617188 "/>
<path style=" stroke:none;fill-rule:nonzero;fill:rgb(0%,0%,0%);fill-opacity:1;" d="M 45.832031 69.050781 L 45.835938 69.046875 L 45.828125 69.046875 Z M 45.832031 69.050781 "/>
<path style=" stroke:none;fill-rule:nonzero;fill:rgb(0%,0%,0%);fill-opacity:1;" d="M 50.269531 50.882812 C 53.523438 48.695312 55.761719 44.378906 55.761719 40.496094 C 55.761719 35.011719 51.3125 30.566406 45.832031 30.566406 C 41.914062 30.566406 38.53125 32.839844 36.917969 36.136719 C 37.566406 36.941406 37.96875 37.945312 37.96875 39.050781 L 37.96875 47.226562 C 38.882812 48.6875 40.046875 49.972656 41.394531 50.882812 C 40.199219 51.1875 39.058594 51.617188 37.96875 52.125 L 37.96875 59.136719 C 37.96875 61.699219 35.882812 63.789062 33.3125 63.789062 L 30.105469 63.789062 L 31.957031 65.640625 L 31.957031 67.558594 C 35.414062 68.550781 40.617188 69.042969 45.824219 69.046875 L 40.789062 64.015625 L 45.035156 53.765625 L 44.992188 53.765625 L 43.34375 51.878906 C 44.144531 52.164062 44.972656 52.332031 45.835938 52.332031 C 46.695312 52.332031 47.523438 52.167969 48.316406 51.878906 L 46.675781 53.765625 L 46.632812 53.765625 L 50.875 64.015625 L 45.839844 69.046875 C 54.828125 69.046875 63.816406 67.574219 63.816406 64.617188 C 63.8125 59.613281 58.046875 52.859375 50.269531 50.882812 Z M 50.269531 50.882812 "/>
<path style=" stroke:none;fill-rule:nonzero;fill:rgb(0%,0%,0%);fill-opacity:1;" d="M 19.523438 64.976562 L 19.523438 62.289062 L 33.316406 62.289062 C 35.050781 62.289062 36.472656 60.871094 36.472656 59.136719 L 36.472656 39.050781 C 36.472656 37.3125 35.050781 35.894531 33.316406 35.894531 L 3.152344 35.894531 C 1.417969 35.894531 0 37.308594 0 39.050781 L 0 59.136719 C 0 60.871094 1.417969 62.289062 3.152344 62.289062 L 16.949219 62.289062 L 16.949219 64.976562 L 7.296875 64.976562 L 6.011719 66.265625 L 6.011719 67.550781 L 30.460938 67.550781 L 30.460938 66.265625 L 29.175781 64.976562 Z M 19.523438 64.976562 "/>
</g>
</svg>
