<?xml version="1.0" encoding="UTF-8"?>
<svg xmlns="http://www.w3.org/2000/svg" xmlns:xlink="http://www.w3.org/1999/xlink" width="90px" height="90px" viewBox="0 0 90 90" version="1.1">
<g id="surface1">
<path style=" stroke:none;fill-rule:nonzero;fill:rgb(63.921569%,83.529412%,87.843137%);fill-opacity:1;" d="M 45 0 C 20.148438 0 0 20.144531 0 45 C 0 69.851562 20.148438 90 45 90 C 69.851562 90 90 69.851562 90 45 C 90 20.144531 69.851562 0 45 0 Z M 45 0 "/>
<path style=" stroke:none;fill-rule:nonzero;fill:rgb(89.803922%,66.666667%,9.019608%);fill-opacity:1;" d="M 45 17.730469 C 45 17.730469 17.453125 40.585938 17.453125 42.917969 L 17.453125 64.832031 C 17.453125 67.160156 19.339844 69.050781 21.671875 69.050781 L 36.476562 69.050781 L 36.476562 55.96875 C 36.476562 52.925781 38.941406 50.457031 41.984375 50.457031 L 48.183594 50.457031 C 51.226562 50.457031 53.691406 52.925781 53.691406 55.96875 L 53.691406 69.050781 L 68.789062 69.050781 C 71.117188 69.050781 73.007812 67.160156 73.007812 64.832031 L 73.007812 42.917969 C 73.007812 40.585938 45 17.730469 45 17.730469 Z M 45 17.730469 "/>
<path style=" stroke:none;fill-rule:nonzero;fill:rgb(77.647059%,58.039216%,13.333333%);fill-opacity:1;" d="M 79.160156 41.601562 L 47.070312 13.878906 C 45.859375 12.832031 44.027344 12.964844 42.980469 14.175781 C 41.933594 15.390625 42.070312 17.21875 43.28125 18.265625 L 75.371094 45.988281 C 76.582031 47.035156 78.414062 46.902344 79.460938 45.691406 C 80.507812 44.476562 80.371094 42.648438 79.160156 41.601562 Z M 79.160156 41.601562 "/>
<path style=" stroke:none;fill-rule:nonzero;fill:rgb(77.647059%,58.039216%,13.333333%);fill-opacity:1;" d="M 47.488281 14.175781 C 46.441406 12.964844 44.613281 12.832031 43.398438 13.878906 L 11.308594 41.601562 C 10.097656 42.648438 9.964844 44.476562 11.011719 45.691406 C 12.058594 46.902344 13.886719 47.035156 15.097656 45.988281 L 47.191406 18.265625 C 48.402344 17.21875 48.535156 15.390625 47.488281 14.175781 Z M 47.488281 14.175781 "/>
</g>
</svg>
