<?xml version="1.0" encoding="UTF-8"?>
<svg xmlns="http://www.w3.org/2000/svg" xmlns:xlink="http://www.w3.org/1999/xlink" width="90px" height="90px" viewBox="0 0 90 90" version="1.1">
<g id="surface1">
<path style=" stroke:none;fill-rule:nonzero;fill:rgb(0%,0%,0%);fill-opacity:1;" d="M 69.457031 11.738281 L 20.542969 11.738281 C 18.921875 11.738281 17.609375 13.054688 17.609375 14.671875 L 17.609375 49.890625 C 17.609375 51.511719 18.921875 52.824219 20.542969 52.824219 L 69.457031 52.824219 C 71.078125 52.824219 72.390625 51.511719 72.390625 49.890625 L 72.390625 14.675781 C 72.390625 13.054688 71.078125 11.738281 69.457031 11.738281 Z M 36.195312 46.957031 L 23.476562 46.957031 L 23.476562 17.609375 L 36.195312 17.609375 Z M 66.519531 46.957031 L 42.066406 46.957031 L 42.066406 35.21875 L 66.519531 35.21875 Z M 66.519531 29.347656 L 42.066406 29.347656 L 42.066406 17.609375 L 66.519531 17.609375 Z M 66.519531 29.347656 "/>
<path style=" stroke:none;fill-rule:nonzero;fill:rgb(0%,0%,0%);fill-opacity:1;" d="M 87.066406 58.695312 L 84.128906 58.695312 L 84.128906 5.871094 L 87.066406 5.871094 C 88.683594 5.871094 90 4.554688 90 2.933594 C 90 1.3125 88.683594 0 87.066406 0 C 85.277344 0 5.632812 0 2.933594 0 C 1.3125 0 0 1.3125 0 2.933594 C 0 4.554688 1.3125 5.871094 2.933594 5.871094 L 5.871094 5.871094 L 5.871094 58.695312 L 2.933594 58.695312 C 1.3125 58.695312 0 60.007812 0 61.628906 C 0 63.25 1.3125 64.566406 2.933594 64.566406 C 4.492188 64.566406 39.941406 64.566406 42.066406 64.566406 L 42.066406 79.078125 L 26.464844 84.28125 C 24.925781 84.792969 24.09375 86.453125 24.605469 87.992188 C 25.121094 89.53125 26.785156 90.359375 28.320312 89.847656 L 45 84.289062 L 61.679688 89.847656 C 63.21875 90.359375 64.878906 89.53125 65.394531 87.992188 C 65.90625 86.453125 65.074219 84.792969 63.535156 84.28125 L 47.933594 79.078125 L 47.933594 64.566406 C 50.0625 64.566406 85.507812 64.566406 87.066406 64.566406 C 88.6875 64.566406 90 63.25 90 61.628906 C 90 60.007812 88.6875 58.695312 87.066406 58.695312 Z M 78.261719 58.695312 L 11.738281 58.695312 L 11.738281 5.871094 L 78.261719 5.871094 Z M 78.261719 58.695312 "/>
</g>
</svg>
