<?xml version="1.0" encoding="UTF-8"?>
<svg xmlns="http://www.w3.org/2000/svg" xmlns:xlink="http://www.w3.org/1999/xlink" width="90px" height="90px" viewBox="0 0 90 90" version="1.1">
<g id="surface1">
<path style=" stroke:none;fill-rule:nonzero;fill:rgb(0%,0%,0%);fill-opacity:1;" d="M 81.28125 54.992188 L 75.523438 50.070312 C 75.796875 48.402344 75.9375 46.695312 75.9375 44.992188 C 75.9375 43.285156 75.796875 41.582031 75.523438 39.910156 L 81.28125 34.988281 C 82.171875 34.226562 82.496094 32.996094 82.097656 31.894531 L 82.019531 31.667969 C 80.433594 27.238281 78.0625 23.132812 75.015625 19.546875 L 74.855469 19.363281 C 74.101562 18.472656 72.875 18.140625 71.769531 18.527344 L 64.625 21.066406 C 61.988281 18.90625 59.042969 17.199219 55.863281 16.003906 L 54.484375 8.535156 C 54.269531 7.382812 53.367188 6.484375 52.214844 6.277344 L 51.976562 6.230469 C 47.398438 5.40625 42.582031 5.40625 38.003906 6.230469 L 37.765625 6.277344 C 36.613281 6.484375 35.710938 7.382812 35.5 8.535156 L 34.109375 16.039062 C 30.953125 17.234375 28.015625 18.941406 25.410156 21.085938 L 18.210938 18.527344 C 17.109375 18.136719 15.882812 18.46875 15.125 19.363281 L 14.96875 19.546875 C 11.925781 23.132812 9.550781 27.238281 7.960938 31.667969 L 7.882812 31.894531 C 7.488281 32.996094 7.8125 34.226562 8.699219 34.988281 L 14.527344 39.964844 C 14.253906 41.617188 14.125 43.304688 14.125 44.984375 C 14.125 46.671875 14.253906 48.359375 14.527344 50 L 8.703125 54.976562 C 7.8125 55.738281 7.488281 56.96875 7.882812 58.070312 L 7.964844 58.296875 C 9.554688 62.726562 11.910156 66.8125 14.96875 70.417969 L 15.125 70.601562 C 15.882812 71.492188 17.109375 71.824219 18.210938 71.4375 L 25.410156 68.878906 C 28.027344 71.03125 30.957031 72.738281 34.109375 73.925781 L 35.5 81.429688 C 35.710938 82.582031 36.613281 83.480469 37.765625 83.6875 L 38.003906 83.734375 C 42.625 84.5625 47.355469 84.5625 51.980469 83.734375 L 52.214844 83.6875 C 53.367188 83.480469 54.269531 82.582031 54.484375 81.429688 L 55.863281 73.960938 C 59.042969 72.769531 62.003906 71.058594 64.625 68.898438 L 71.773438 71.4375 C 72.875 71.828125 74.101562 71.496094 74.855469 70.601562 L 75.015625 70.417969 C 78.074219 66.804688 80.429688 62.726562 82.019531 58.296875 L 82.097656 58.070312 C 82.496094 56.988281 82.167969 55.757812 81.28125 54.992188 Z M 69.285156 40.949219 C 69.503906 42.273438 69.617188 43.636719 69.617188 45 C 69.617188 46.363281 69.503906 47.726562 69.285156 49.050781 L 68.703125 52.578125 L 75.269531 58.191406 C 74.273438 60.484375 73.019531 62.65625 71.523438 64.660156 L 63.367188 61.769531 L 60.609375 64.035156 C 58.507812 65.757812 56.171875 67.113281 53.640625 68.0625 L 50.292969 69.320312 L 48.71875 77.84375 C 46.234375 78.125 43.730469 78.125 41.246094 77.84375 L 39.675781 69.300781 L 36.351562 68.027344 C 33.847656 67.078125 31.519531 65.722656 29.433594 64.011719 L 26.675781 61.734375 L 18.464844 64.652344 C 16.972656 62.640625 15.722656 60.46875 14.722656 58.183594 L 21.359375 52.515625 L 20.785156 49 C 20.574219 47.6875 20.460938 46.335938 20.460938 45 C 20.460938 43.65625 20.566406 42.308594 20.785156 41 L 21.359375 37.484375 L 14.722656 31.816406 C 15.714844 29.523438 16.972656 27.359375 18.464844 25.347656 L 26.675781 28.265625 L 29.433594 25.988281 C 31.519531 24.273438 33.847656 22.921875 36.351562 21.972656 L 39.683594 20.714844 L 41.257812 12.171875 C 43.726562 11.890625 46.25 11.890625 48.726562 12.171875 L 50.300781 20.699219 L 53.648438 21.953125 C 56.171875 22.902344 58.519531 24.257812 60.617188 25.980469 L 63.378906 28.246094 L 71.535156 25.355469 C 73.027344 27.367188 74.277344 29.539062 75.277344 31.824219 L 68.710938 37.441406 Z M 45 28.652344 C 36.457031 28.652344 29.53125 35.578125 29.53125 44.121094 C 29.53125 52.664062 36.457031 59.589844 45 59.589844 C 53.542969 59.589844 60.46875 52.664062 60.46875 44.121094 C 60.46875 35.578125 53.542969 28.652344 45 28.652344 Z M 51.960938 51.082031 C 50.117188 52.929688 47.613281 53.96875 45 53.964844 C 42.371094 53.964844 39.902344 52.9375 38.039062 51.082031 C 36.191406 49.238281 35.152344 46.734375 35.15625 44.121094 C 35.15625 41.492188 36.183594 39.023438 38.039062 37.160156 C 39.902344 35.296875 42.371094 34.277344 45 34.277344 C 47.628906 34.277344 50.097656 35.296875 51.960938 37.160156 C 53.808594 39.003906 54.847656 41.507812 54.84375 44.121094 C 54.84375 46.75 53.816406 49.21875 51.960938 51.082031 Z M 51.960938 51.082031 "/>
</g>
</svg>
